<svg viewBox="0 0 240 240" xmlns="http://www.w3.org/2000/svg" role="img" aria-label="EcoVox, la mascota de ECOVOCES IA: un micrófono con una hoja">
  <defs>
    <linearGradient id="evBody" x1="0" y1="0" x2="0" y2="1">
      <stop offset="0" stop-color="#22c97a"></stop>
      <stop offset="1" stop-color="#16a35c"></stop>
    </linearGradient>
    <linearGradient id="evLeaf" x1="0" y1="1" x2="1" y2="0">
      <stop offset="0" stop-color="#1AB366"></stop>
      <stop offset="1" stop-color="#7ee0a8"></stop>
    </linearGradient>
  </defs>

  
  <circle cx="120" cy="122" r="112" fill="#1AB366" fill-opacity="0.10"></circle>

  
  <g fill="none" stroke="#0CB1E9" stroke-width="6" stroke-linecap="round" opacity="0.85">
    <path d="M56 100a34 34 0 0 0 0 44"></path>
    <path d="M40 86a56 56 0 0 0 0 72"></path>
    <path d="M184 100a34 34 0 0 1 0 44"></path>
    <path d="M200 86a56 56 0 0 1 0 72"></path>
  </g>

  
  <path d="M120 60c2-22 18-34 40-34-2 24-18 36-40 34Z" fill="url(#evLeaf)"></path>
  <path d="M126 54c10-9 20-13 30-14" fill="none" stroke="#0e7a45" stroke-width="2.5" stroke-linecap="round"></path>
  
  <path d="M120 78c0-10 0-16 0-20" fill="none" stroke="#0e7a45" stroke-width="5" stroke-linecap="round"></path>

  
  <rect x="80" y="66" width="80" height="112" rx="40" fill="url(#evBody)"></rect>
  
  <g stroke="#0e7a45" stroke-width="2.4" opacity="0.45" stroke-linecap="round">
    <line x1="94" y1="86" x2="146" y2="86"></line>
    <line x1="90" y1="98" x2="150" y2="98"></line>
  </g>

  
  <g>
    <circle cx="104" cy="120" r="11" fill="#ffffff"></circle>
    <circle cx="136" cy="120" r="11" fill="#ffffff"></circle>
    <circle cx="106" cy="122" r="5" fill="#0c3b25"></circle>
    <circle cx="138" cy="122" r="5" fill="#0c3b25"></circle>
    <circle cx="104.5" cy="119.5" r="1.6" fill="#ffffff"></circle>
    <circle cx="136.5" cy="119.5" r="1.6" fill="#ffffff"></circle>
    
    <path d="M104 142q16 16 32 0" fill="none" stroke="#ffffff" stroke-width="5" stroke-linecap="round"></path>
    
    <circle cx="92" cy="138" r="6" fill="#F9BC06" opacity="0.55"></circle>
    <circle cx="148" cy="138" r="6" fill="#F9BC06" opacity="0.55"></circle>
  </g>

  
  <rect x="115" y="176" width="10" height="22" rx="3" fill="#0e7a45"></rect>
  <path d="M88 206c0-12 14-20 32-20s32 8 32 20Z" fill="#0e7a45"></path>
  <ellipse cx="120" cy="206" rx="42" ry="8" fill="#0c3b25" opacity="0.35"></ellipse>
</svg>